HIERARCHY
ROOT Hips
{
 OFFSET 0.000000 0.000000 0.000000
 CHANNELS 6 Xposition Yposition Zposition Yrotation Xrotation Zrotation
 JOINT Chest
 {
  OFFSET 0.000000 10.354800 0.006500
  CHANNELS 3 Yrotation Xrotation Zrotation
  JOINT Chest2
  {
   OFFSET 0.000000 10.435800 -0.013200
   CHANNELS 3 Yrotation Xrotation Zrotation
   JOINT Chest3
   {
    OFFSET 0.000000 10.393700 0.000000
    CHANNELS 3 Yrotation Xrotation Zrotation
    JOINT Chest4
    {
     OFFSET 0.000000 10.383100 0.000000
     CHANNELS 3 Yrotation Xrotation Zrotation
     JOINT Neck
     {
      OFFSET 0.000000 15.694000 0.000000
      CHANNELS 3 Yrotation Xrotation Zrotation
      JOINT Head
      {
       OFFSET 0.000000 9.711000 -0.028000
       CHANNELS 3 Yrotation Xrotation Zrotation
       End Site
       {
        OFFSET 0.000000 18.578700 -0.014800
       }
      }
     }
     JOINT RightCollar
     {
      OFFSET -3.157200 10.367500 0.000000
      CHANNELS 3 Yrotation Xrotation Zrotation
      JOINT RightShoulder
      {
       OFFSET -14.482500 0.000000 0.000000
       CHANNELS 3 Yrotation Xrotation Zrotation
       JOINT RightElbow
       {
        OFFSET 0.000000 -31.707800 0.000000
        CHANNELS 3 Yrotation Xrotation Zrotation
        JOINT RightWrist
        {
         OFFSET 0.000000 -25.659300 0.000000
         CHANNELS 3 Yrotation Xrotation Zrotation
         End Site
         {
          OFFSET 0.000000 -18.994300 0.000000
         }
        }
       }
      }
     }
     JOINT LeftCollar
     {
      OFFSET 3.157200 10.367500 0.000000
      CHANNELS 3 Yrotation Xrotation Zrotation
      JOINT LeftShoulder
      {
       OFFSET 14.482500 0.000000 0.000000
       CHANNELS 3 Yrotation Xrotation Zrotation
       JOINT LeftElbow
       {
        OFFSET 0.000000 -31.707800 0.000000
        CHANNELS 3 Yrotation Xrotation Zrotation
        JOINT LeftWrist
        {
         OFFSET 0.000000 -25.659300 0.000000
         CHANNELS 3 Yrotation Xrotation Zrotation
         End Site
         {
          OFFSET 0.000000 -18.994300 0.000000
         }
        }
       }
      }
     }
    }
   }
  }
 }
 JOINT RightHip
 {
  OFFSET -8.365600 -0.032100 -0.003200
  CHANNELS 3 Yrotation Xrotation Zrotation
  JOINT RightKnee
  {
   OFFSET 0.000000 -43.980000 0.003100
   CHANNELS 3 Yrotation Xrotation Zrotation
   JOINT RightAnkle
   {
    OFFSET 0.000000 -42.882800 0.005200
    CHANNELS 3 Yrotation Xrotation Zrotation
    JOINT RightToe
    {
     OFFSET 0.000000 -4.915500 10.826300
     CHANNELS 3 Yrotation Xrotation Zrotation
     End Site
     {
      OFFSET 0.000000 -1.517500 6.175900
     }
    }
   }
  }
 }
 JOINT LeftHip
 {
  OFFSET 8.365600 -0.032100 -0.003200
  CHANNELS 3 Yrotation Xrotation Zrotation
  JOINT LeftKnee
  {
   OFFSET 0.000000 -43.980000 0.003100
   CHANNELS 3 Yrotation Xrotation Zrotation
   JOINT LeftAnkle
   {
    OFFSET 0.000000 -42.882800 0.005200
    CHANNELS 3 Yrotation Xrotation Zrotation
    JOINT LeftToe
    {
     OFFSET 0.000000 -4.915500 10.826300
     CHANNELS 3 Yrotation Xrotation Zrotation
     End Site
     {
      OFFSET 0.000000 -1.517500 6.175900
     }
    }
   }
  }
 }
}
MOTION
Frames: 11
Frame Time: 0.008333
0.000000 91.618600 0.000000 0.000000 -5.767877 0.000000 0.000000 11.653817 0.000000 0.000000 -5.885947 0.000000 0.000000 -0.000000 0.000000 0.000000 -0.000000 0.000000 0.000000 12.528835 0.000000 0.000000 0.711642 0.000000 0.000000 -0.000000 0.000000 0.000000 0.000000 -90.000000 0.000000 -2.309062 0.000000 0.000000 2.309062 0.000000 0.000000 -0.000000 0.000000 0.000000 -0.000000 90.000000 0.000000 -2.309062 0.000000 0.000000 2.309062 0.000000 0.000000 8.520406 0.000000 0.000000 1.905762 0.000000 -0.000000 -4.658285 0.000000 0.000000 -0.000000 0.000000 0.000000 8.520406 0.000000 0.000000 1.905762 0.000000 -0.000000 -4.658285 0.000000 0.000000 -0.000000 0.000000
-7.054766 147.221931 29.735017 -173.124921 -20.240339 -2.651229 -1.785104 10.668753 3.414824 -0.153693 0.719974 0.253001 -0.239793 1.260562 0.438623 -1.671768 9.777183 3.279813 -1.985194 25.518580 -3.044871 -1.469950 2.074315 -2.867349 0.661620 6.492844 -4.008762 -3.030241 -6.682849 -6.542956 82.278114 -57.563623 -87.408738 -7.821385 -12.200452 -10.025656 -2.881597 8.167978 -0.064331 6.101617 -1.768834 -0.097716 130.984832 -64.503188 -171.224673 9.183254 13.557708 10.130457 15.610163 -52.433552 -16.689601 -150.018731 70.091112 -141.024520 -3.896186 -30.307861 9.250346 0.000316 -0.149495 0.019987 -18.531659 -55.647563 4.820205 159.338365 76.149023 153.718739 -2.405434 -26.572896 -0.683898 0.058890 0.109387 0.028653
-3.739907 140.667362 29.928535 -173.107164 -20.241757 -2.722740 -1.779146 10.681663 3.483453 -0.153041 0.722690 0.255944 -0.244682 1.255776 0.437400 -1.661334 9.793879 3.282929 -1.992509 25.504645 -3.044261 -1.478034 2.057067 -2.864901 0.656848 6.485891 -4.016536 -3.043739 -6.646915 -6.566990 82.253994 -57.564951 -87.397676 -7.848280 -12.241983 -10.035296 -2.874707 8.157129 -0.068235 6.074799 -1.835870 -0.068272 130.917907 -64.497527 -171.151760 9.169463 13.491847 10.092898 15.530137 -52.453226 -16.587409 -150.014383 70.080418 -141.031880 -3.913563 -30.378224 9.271288 -0.004874 -0.081290 -0.002208 -18.679447 -55.615704 4.950915 159.325198 76.165145 153.703683 -2.362898 -26.517112 -0.701792 0.030430 0.057924 0.013827
-1.013703 135.269286 30.088515 -173.099269 -20.242837 -2.758784 -1.770260 10.692385 3.518036 -0.143822 0.735225 0.256629 -0.254493 1.248536 0.439810 -1.646572 9.829618 3.287727 -2.000899 25.479465 -3.046177 -1.489074 2.025382 -2.861465 0.641181 6.443667 -4.021689 -3.052564 -6.601658 -6.594094 82.290772 -57.587555 -87.449509 -7.842309 -12.163962 -9.992058 -2.884995 8.112169 -0.069260 6.061258 -1.864029 -0.054694 130.953153 -64.466461 -171.206261 9.163401 13.448983 10.072517 15.498990 -52.464329 -16.540038 -150.005792 70.069509 -141.030448 -3.923279 -30.405591 9.286645 -0.005117 -0.053234 -0.002320 -18.766190 -55.597852 5.024094 159.316944 76.176178 153.699233 -2.356384 -26.487949 -0.707497 0.025456 0.039582 0.011564
0.957243 131.371194 30.202749 -173.083200 -20.250640 -2.800262 -1.769389 10.710492 3.554923 -0.143793 0.736494 0.256831 -0.244793 1.263830 0.439579 -1.656497 9.820396 3.289784 -1.999791 25.476458 -3.048009 -1.493082 2.011419 -2.857074 0.641474 6.435900 -4.023653 -3.063713 -6.569418 -6.612685 82.312183 -57.601691 -87.479760 -7.839651 -12.132095 -9.967858 -2.873998 8.103887 -0.071740 6.041689 -1.894292 -0.036475 130.999478 -64.433642 -171.270672 9.160148 13.428532 10.058149 15.448946 -52.467662 -16.474843 -150.000441 70.062055 -141.044956 -3.945933 -30.439259 9.316858 -0.007986 -0.019419 -0.003625 -18.837762 -55.572769 5.084498 159.316506 76.187978 153.714976 -2.333205 -26.457578 -0.724949 0.015238 0.016134 0.006920
2.200745 128.908824 30.276133 -173.073458 -20.250204 -2.817855 -1.768607 10.718728 3.569759 -0.145017 0.735684 0.257574 -0.244778 1.265067 0.439703 -1.653302 9.829169 3.288282 -2.000494 25.469158 -3.047233 -1.491417 2.005442 -2.858810 0.645779 6.456093 -4.041372 -3.081850 -6.591880 -6.595906 82.176233 -57.549897 -87.335828 -7.888080 -12.209485 -9.984392 -2.851343 8.102938 -0.079226 6.003455 -1.961071 0.002578 131.103011 -64.392822 -171.397198 9.199404 13.433294 10.064495 15.432977 -52.472312 -16.451086 -149.990284 70.054933 -141.035485 -3.954446 -30.448357 9.320895 -0.003644 -0.011595 -0.001654 -18.913501 -55.568018 5.134140 159.325243 76.189506 153.720840 -2.317656 -26.450436 -0.743722 0.014496 0.010980 0.006583
2.884363 127.554378 30.316970 -173.067327 -20.248397 -2.824838 -1.770248 10.720842 3.574697 -0.146246 0.734365 0.258268 -0.244744 1.265432 0.439715 -1.643599 9.845607 3.283500 -2.005423 25.453136 -3.040247 -1.485526 2.011827 -2.866868 0.634162 6.450650 -4.044615 -3.084882 -6.557023 -6.617444 82.172919 -57.555286 -87.340542 -7.892998 -12.204878 -9.969772 -2.851346 8.090966 -0.078886 5.983226 -2.014481 0.034377 131.110418 -64.384706 -171.402408 9.181900 13.411018 10.017749 15.430199 -52.476650 -16.442040 -149.980630 70.049230 -141.027036 -3.962677 -30.452153 9.314165 -0.000390 -0.007178 -0.000177 -18.973077 -55.571393 5.164976 159.327289 76.184715 153.717643 -2.302463 -26.445983 -0.758850 0.011364 0.006230 0.005160
3.209358 126.909531 30.336156 -173.063920 -20.250442 -2.824100 -1.771001 10.725919 3.571844 -0.143655 0.738363 0.257012 -0.244358 1.267028 0.439763 -1.640473 9.850210 3.278750 -1.999149 25.455380 -3.037298 -1.481560 2.011976 -2.868795 0.626823 6.441526 -4.038967 -3.104421 -6.473777 -6.677615 82.240636 -57.596655 -87.416092 -7.891524 -12.200675 -9.954431 -2.851917 8.086699 -0.077183 5.960645 -2.061511 0.061040 131.137600 -64.379664 -171.420287 9.160207 13.392889 9.959427 15.428956 -52.474084 -16.444398 -149.967265 70.038104 -141.016348 -3.955517 -30.459573 9.314442 0.000445 -0.005154 0.000202 -19.065010 -55.574276 5.201550 159.295014 76.173452 153.661029 -2.270782 -26.439196 -0.789565 0.004020 0.002070 0.001825
3.342980 126.645539 30.344691 -173.063956 -20.247998 -2.824619 -1.763809 10.735783 3.568262 -0.144451 0.732988 0.259911 -0.243237 1.272211 0.436570 -1.641088 9.851878 3.275568 -1.988705 25.454749 -3.035860 -1.476755 2.012688 -2.868782 0.624237 6.444689 -4.038554 -3.112726 -6.454008 -6.699779 82.226654 -57.597390 -87.403060 -7.888899 -12.201178 -9.942569 -2.851166 8.084771 -0.074670 5.933091 -2.120776 0.100403 131.091325 -64.379992 -171.344552 9.116406 13.375748 9.879963 15.429403 -52.476053 -16.445593 -149.964307 70.036109 -141.011071 -3.953576 -30.463062 9.309609 0.001674 -0.003696 0.000760 -19.105304 -55.576712 5.218595 159.307712 76.175147 153.678270 -2.249273 -26.438135 -0.816179 0.007151 0.002441 0.003247
3.388893 126.553606 30.348074 -173.065720 -20.246300 -2.818553 -1.759172 10.743414 3.558641 -0.146968 0.731104 0.260042 -0.243469 1.268678 0.438733 -1.638127 9.863890 3.268528 -1.979550 25.452764 -3.036656 -1.456059 2.031118 -2.890053 0.625009 6.443196 -4.035473 -3.123163 -6.434032 -6.725375 82.214778 -57.600090 -87.388843 -7.887948 -12.193425 -9.949639 -2.850521 8.081928 -0.073384 5.918406 -2.145544 0.120822 131.114905 -64.372275 -171.356992 9.077033 13.368961 9.794719 15.430527 -52.480117 -16.452769 -149.970648 70.034788 -141.022252 -3.950518 -30.461406 9.302620 0.001006 -0.004314 0.000457 -19.142185 -55.579062 5.231888 159.299059 76.171654 153.655762 -2.237268 -26.441794 -0.823687 0.003297 0.002792 0.001497
3.401870 126.526844 30.349080 -173.064969 -20.247124 -2.812510 -1.757357 10.749606 3.550263 -0.146577 0.734897 0.258789 -0.243371 1.270180 0.438280 -1.638378 9.868650 3.264088 -1.971628 25.454842 -3.038879 -1.454881 2.029634 -2.892421 0.623788 6.440908 -4.033948 -3.133795 -6.412869 -6.747731 82.238939 -57.619388 -87.412496 -7.874353 -12.170736 -9.937819 -2.852251 8.078415 -0.074018 5.905620 -2.163024 0.140229 131.188788 -64.361735 -171.439140 9.072217 13.367407 9.734405 15.436313 -52.477961 -16.462868 -149.978634 70.033414 -141.029153 -3.950130 -30.464092 9.302779 0.001807 -0.004288 0.000820 -19.181716 -55.580000 5.241983 159.288850 76.166006 153.629717 -2.226039 -26.443981 -0.828095 -0.001806 0.002882 -0.000820
